<svg version="1.1"
                            xmlnsXlink="/img/basket.svg"
                            x="0px" y="0px" width="2rem" height="1.5rem" viewBox="0 0 69.9 79.4" style={{enableBackground: "new 0 0 69.9 79.4"}}
                            xmlSpace="preserve">
                            <g>
                                <path d="M69.7,63.4l-6.2-42.1c-0.2-1.5-1.5-2.6-3-2.6h-10v-4.3C49.9,5.8,42.3-0.6,33.6,0.1C26,0.7,19.9,6.8,19.2,14.4v4.3h-10
                                    c-1.5,0-2.8,1.1-3,2.6L0.1,63.4C-1,71.1,4.3,78.2,12,79.3c0.7,0.1,1.4,0.1,2,0.1h41.8c7.7,0,14-6.2,14-14
                                    C69.9,64.8,69.8,64.1,69.7,63.4z M25.2,14.4c0.5-5.3,5.3-9.2,10.6-8.7c4.6,0.5,8.2,4.1,8.7,8.7v4.3H25.2L25.2,14.4z M61.9,70.7
                                    c-1.5,1.8-3.8,2.8-6.1,2.8H14c-4.4,0-8-3.6-8-8c0-0.4,0-0.8,0.1-1.2l5.8-39.5h7.4v17.3c0,1.7,1.3,3,3,3s3-1.3,3-3V24.8h19.3v17.3
                                    c0,1.7,1.3,3,3,3c1.7,0,3-1.3,3-3V24.8H58l5.8,39.5C64.2,66.7,63.5,69,61.9,70.7z" fill="#fff" />
                            </g>
                        </svg>