<svg
        xmlns="http://www.w3.org/2000/svg"
        xmlns:xlink="http://www.w3.org/1999/xlink"
        width="24px" height="21px">
        <defs>
                <filter id="Filter_0">
                        <feFlood flood-color="rgb(207, 207, 207)" flood-opacity="1" result="floodOut" />
                        <feComposite operator="atop" in="floodOut" in2="SourceGraphic" result="compOut" />
                        <feBlend mode="normal" in="compOut" in2="SourceGraphic" />
                </filter>

        </defs>
        <g filter="url(#Filter_0)">
                <path fill-rule="evenodd"  stroke-width="2px" stroke="rgb(17, 17, 17)" fill-opacity="0" fill="rgb(132, 134, 171)"
                      d="M7.000,5.000 L17.000,5.000 C18.105,5.000 19.000,5.896 19.000,6.999 L19.000,14.000 C19.000,15.105 18.105,16.000 17.000,16.000 L7.000,16.000 C5.895,16.000 5.000,15.105 5.000,14.000 L5.000,6.999 C5.000,5.896 5.895,5.000 7.000,5.000 Z"/>
                <path fill-rule="evenodd"  fill="rgb(17, 17, 17)"
                      d="M17.098,8.366 L12.902,11.365 C12.613,11.533 12.283,11.523 12.000,11.396 C11.717,11.523 11.387,11.533 11.098,11.365 L6.902,8.366 C6.424,8.090 6.260,7.479 6.536,7.000 C6.812,6.522 7.424,6.358 7.902,6.634 L12.000,9.564 L16.098,6.634 C16.576,6.358 17.188,6.522 17.464,7.000 C17.740,7.479 17.576,8.090 17.098,8.366 Z"/>
        </g>
</svg>
