<?xml version="1.0" encoding="utf-8"?>
<!-- Generator: Adobe Illustrator 21.0.0, SVG Export Plug-In . SVG Version: 6.00 Build 0)  -->
<svg version="1.1" id="Layer_1" xmlns="http://www.w3.org/2000/svg" xmlns:xlink="http://www.w3.org/1999/xlink" x="0px" y="0px"
	 viewBox="0 0 269.3 55.7" style="enable-background:new 0 0 269.3 55.7;" xml:space="preserve">
<style type="text/css">
	.st0{fill:#69AF4B;}
</style>
<path class="st0" d="M58.7,13.7c-0.1-0.9-0.5-1.8-1.1-2.4c-0.2-0.2-0.4-0.4-0.5-0.5c-0.3-0.3-0.7-0.5-1-0.7
	c-1.6-0.8-4.4-0.3-6.7,0.1c-1.6,0.3-3.3,0.5-5.2,0.7c0.3-0.1,0.6-0.2,0.9-0.1c0,0,0,0,0,0c-0.4-0.2-0.5-0.3-1-0.3
	c-0.1-0.2,0.1-0.8,0.3-0.8c0,0,0,0,0,0c-0.1,0-0.2,0.1-0.4,0.1c0-0.3,0-0.3,0.1-0.7c0.2-0.1,0.4-0.1,0.4-0.3c0.3,0,0.5-0.2,0.5-0.4
	c0,0,0.1-0.1,0.2-0.2c0.1-0.1,0.1-0.2,0.1-0.2c0.3,0,0.3,0.6,0.6,0.1c0-0.1,0.1-0.1,0.1-0.2c0.1,0,0.2,0.2,0.2,0.2
	c0.5,0,0.9-0.7,1.1-1.1c0,0,0,0,0,0c-0.1,0.3-0.1,0.3-0.1,0.4c0,0.1-0.2,0.3-0.2,0.4C47.5,7.8,48,7.2,48.1,7
	c0.1-0.1,0.1-0.2,0.2-0.3c0.1,0.2,0,0.5-0.1,0.7c0,0,0,0,0,0c0.6-0.4,0.7-1,0.5-1.7c0,0,0,0,0,0c0.3,0.2,0.4,0.6,0.5,0.9
	c0,0.1,0,0.1,0,0.2c0.6-0.9-0.4-2.2-1.3-2.5c0,0,0,0,0,0c0.7-0.5,1.5,0.2,1.8,0.8C50,5.4,50,5.4,50,5.4c0.2-1.2-0.5-2.1-1.7-2.3
	c-0.1,0-0.2,0-0.3,0c0,0,0,0,0,0c0.6-0.6,1.4-0.2,2,0.3c0.1,0.1,0.1,0.3,0.2,0.4c0,0,0,0,0,0c0-0.9-1-1.8-1.8-1.9
	c-0.1,0-0.2,0-0.4,0c0.6-0.3,1.3,0,1.8,0.3c0.1,0.1,0.1,0.2,0.2,0.2c-0.1-0.3-0.2-0.6-0.4-0.9c-0.6-0.6-1.2-0.8-2.1-0.6
	c-1.2,0.4-1.6,1-1.9,2.3c0,0.1,0,0.6-0.1,0.7c-0.4,0.1-0.8,0.3-1.2,0.4c-0.5,0.1-0.8,0-1.3-0.1c0,0,0.2-0.2,0.2-0.2c0,0,0,0,0-0.1
	c0,0,0,0,0,0c-0.6-0.2-0.7-0.2-0.8-0.8c0-0.5,0-0.9-0.2-1.4c0-0.1,0-0.1-0.1-0.1c0.6,0,1.1-0.3,1.1-0.9c-0.2-0.4-0.3-0.1-0.5,0
	C42.9,0.3,43-0.1,42.6,0c-0.1,0-0.5,0.3-0.5,0.3C42,0.1,42.1,0,41.8,0c0,0-0.2,0.1-0.3,0.1c-0.1-0.3-0.4,0-0.5,0.1c0,0,0,0,0,0
	c-0.2-0.2-0.3-0.1-0.4,0.1c0,0,0,0-0.1,0c-0.3,0.1-0.3,0.6-0.3,0.9c-0.2,0.1-0.4,0.3-0.4,0.6c0,0,0,0,0,0c0.2-0.1,0.5,0,0.6,0.1
	c0,0.4-0.8,0.4-0.5,1C40,3,40.1,3.1,40.2,3.1c-0.1,0.4-0.5,1-0.8,1.3c-0.1,0-0.2,0.1-0.2,0.2c0.1,0.1,0.3,0.1,0.4,0.1
	c-0.2,0.7-0.2,1.2,0.2,1.8c0.5,0.8,1.3,1.3,2.2,1.7c0.2,0.1,0.8,0.4,0.8,0.6c-0.2,0.1-0.3,0.3-0.5,0.4c-0.4,0.2-1.6,0.5-1.6,1.2
	c0,0,0,0,0.1,0c0.2-0.2,0.5-0.4,0.7-0.5c-0.1,0.1-0.2,0.4-0.1,0.6c0.2-0.3,0.4-0.5,0.7-0.7c0.1,0,0.1-0.1,0.2-0.2
	c0,0.1,0.1,0.2,0.2,0.3c0-0.2,0.1-0.2,0.1-0.3c0.1,0,0.2,0.1,0.2,0.2c0,0,0,0,0.1,0c0,0,0-0.1,0-0.3c0-0.2,0.2-0.3,0.3-0.4
	c0,0,0,0,0,0c0.1,0.2,0.2,0.3,0.2,0.5c0.2-0.1,0.3-0.3,0.5-0.3c0.1,0.3,0,0.8,0,1.1c0,0,0,0-0.7,0c-0.2,0-0.4,0.1-0.5,0.3
	c0,0,0,0,0,0c0.1,0,0.3-0.1,0.4,0c-0.1,0.1-0.3,0.2-0.4,0.3c-5.7,0.3-12-0.3-17.3-1.7l-2.4-0.4c-2.6-0.1-6.4-0.3-8.7-1.5l-0.5-0.3
	l-1-0.5c-0.3-0.1-0.6-0.3-0.9-0.4c-0.5-0.2-1-0.3-1.6-0.5C10,5.4,9.9,5.2,9.8,5C9.6,4.3,9.4,3.9,9.1,3.8C8.9,3.7,8.7,3.7,8.2,3.7
	C8.1,3.7,8,3.6,7.9,3.6c0,0,0,0,0,0C7.6,3.4,7.5,3.2,7.3,3C7,2.8,6.8,2.7,6.7,2.6C6.6,2.4,6.5,2.1,6.4,1.8c0,0.2-0.1,0.4-0.1,0.7
	c0.1,0.4,0,0.5,0.3,0.8C6.5,3.2,6.4,3.2,6.4,3.1C6.3,3,6.3,3,6.2,2.9C5.8,2.3,5.7,1.9,5.5,1.2C5,2.4,5.6,3.3,6.4,4
	c0,0.1,0.1,0.1,0.2,0.2c0.1,0.3,0.2,0.6,0.3,0.9C6.5,4.9,6.4,4.9,6,5C5.1,5.2,5.3,6.2,5.8,6.7C5,7.5,4.5,7.9,4.7,8.4
	c0.2,0.4-1.3,1.1-1.6,1.5c-1,0.9-1.8,1.6-2.8,2.3C0.1,12.4,0,12.4,0,12.7l0.1,0.2c0.1,0.6,0.6,1.1,1,1.5c0.2,0.2,0.2,0.4,0.5,0.5
	c0.6,0.3,1.4-0.1,2-0.3l0.6-0.1l1,0.1c0.8,0.3,1.7,0.4,2.6,0.5c1,0.1,2,0.2,3.1,0.5l1.6,0.9l1.6,1.6l1.6,1.6l0.4,0.8
	c0.7,1.7,1.4,2.8,2.6,4.2l0.6,1l1,1.6l0.7,0.5l0.4,0.2l0.1,0.7l0.2,0.5l0,0l0,0l0.3,0.8l0.1,0.1c-1.4,1.2-2.4,2.6-2.7,4.1
	c-0.9,0.3-1.8,0.6-2.7,0.9c-0.4,0.2-0.8,0.3-1.2,0.5c-0.1,0.6,0.7,0.3,1.2,0.2c0.2,0,0.3,0,0.5,0c0.9,0.7,1.1,0.8,2.2,0.6
	c0.1,0.1,0.2,0.1,0.2,0.2c-0.3,0.1-0.6,0.2-0.9,0.3c-0.5,1.1-1,2.1-1.5,3.2c-0.3,0.2-0.6,0.2-0.2,0.4c0.2,0.1,0.4,0.2,0.7,0.3
	c0.5,0.4,0.8,0.6,1.2,0.5c0.4-0.1,0.5-0.3,0.8-0.6c0.5-0.1,1.1-0.1,1.6-0.2c0.9-0.3,1.7-0.6,2.3-1c-0.1,0.3-0.2,0.6-0.4,0.8
	c-0.6,0.7-1.3,1.3-1.6,2.2l2.9,0l0.1-0.1c0.1-0.4,0.4-0.7,0.7-1c0.1,0,0.3,0.1,0.4,0.1c0.2-0.7,0-1.3,0-2c0-0.4,0-0.8,0.1-1.3
	c0.6,0.8,1,1.5,1.1,2.2c-0.1,0.2-0.2,0.4-0.3,0.5c-0.2,0.5-0.4,1-0.7,1.5l0.3,0c0,0-0.1,0.1-0.1,0.1c0.6,0.1,0.9,0.1,1.5-0.1l0,0
	c0.1,0.1,0.2,0.1,0.3,0.2c0.4-0.4,0.6-0.9,0.7-1.3c0.1,0,0.2,0,0.3,0c0.2-0.9,0.2-1.8,0.2-2.7c0-0.1,0-0.1,0-0.2
	c0.1-0.2,0.2-0.3,0.3-0.5l0.2,0.3c0.1-0.3,0.1-0.6,0.2-0.9c0,0,0,0,0,0c0,0,0.1-0.1,0.1-0.1c3.9-1.4,7.8-0.2,11.8-0.9
	c0,0.2,0.1,0.3,0.1,0.5c0.3,1,0.4,2.3,0.1,3.4c-0.3,1-0.9,1.8-0.9,1.8c0.8,0,0.9,0,1.4-0.5c0.1,0.1,0.2,0.2,0.3,0.3
	c0.9-0.6,0.9-2.1,1-2.9c0.7-1.5,0.6-1.4,0.8-3.1c0.7,0.9,1.3,1.8,2,2.6c0.9,1.7,0.8,2.6-0.4,4.1c0.2,0,0.5,0,0.7,0
	c0,0.1,0,0.2-0.1,0.3c0.4-0.1,0.7-0.2,1-0.3c0.2-0.1,0.4-0.2,0.6-0.4c0.1,0.1,0.1,0.2,0.2,0.2c0,0,0,0-0.1,0c0,0,0,0.1-0.1,0.1
	c0.1,0,0.1,0,0.2,0c0,0,0,0,0-0.1c0,0,0,0,0-0.1c0,0,0-0.1,0.1-0.1c0.1-0.1,0.1-0.2,0.2-0.4c0-0.1,0.1-0.2,0.1-0.3
	c-0.1,0.1-0.1,0.1-0.2,0.2c0,0.1-0.1,0.2-0.1,0.3c0,0.1-0.1,0.2-0.1,0.2c0.3-1.1,0.1-2.1,0-3.3c0.1-0.6,0-1.2,0.1-1.7
	c-0.5-0.9-0.7-1.7-0.6-2.6c0.1-2.4,0.7-4-0.3-6.1c-0.1-0.1-0.1-0.3-0.2-0.4c0.1-0.1,0.1-0.1,0.2-0.2c0.1-0.1,0.1-0.1,0.2-0.2
	c0,0,0.1,0.1,0.1,0.1c0.2,0.2,0.5,0.5,0.6,0.9c0,0.2,0.4,0.3,0.4-0.1c-0.2-0.5-0.4-0.9-0.7-1.2c0.2-0.3,0.4-0.7,0.2-1.2
	c-0.2-0.3-0.4-0.5-0.7-0.5c-0.1,0-0.3,0-0.4,0.1c-0.7,0.3-0.6,1.1,0,1.5c0,0,0,0,0,0c0.1,0.1,0.1,0.1,0.2,0.2l-0.3,0.3
	c-2.4-2.4-5.3-3.4-8.4-3.5c-0.9,0-2.1-0.1-5.5,0.7c-2.7,0.7-5.7,1.8-8.2,3.2l0,0c-0.2-0.6-0.1-2.3-0.1-2.4c-1.3,0.7-2,0.1-2.1-1.1
	c0-0.4-0.1-0.7-0.2-1c-0.2-0.7-0.6-0.8-0.7-1c-0.1-0.2-0.2-0.5-0.2-0.6l0,0c-0.2,0.1-1.5,0.6-1.6,0.6c-0.1,0-0.1,0-0.2,0
	c0,0-0.1,0-0.1,0c-0.4-0.2,0.2-0.7,0.3-0.8c0.9-0.8,1.5-1.2,1.9-2.2c0.1-0.2,0.2-0.5,0.3-0.8c0.2-0.3,0.4-0.6,0.7-0.9
	c0.2-0.2,0.5-0.3,0.8-0.3c0.3,0,0.6-0.1,0.9-0.1c0.5,0,1.1,0.1,1.5,0.2c0.5,0.1,0.9,0.4,1.2,0.7c0.3,0.4,0.7,0.6,1.1,0.8
	c0.4,0.2,0.8,0.3,1.3,0.4c0.4,0.1,1.3,0.3,2.4,0.5c1.1,0.2,2.2,0.4,3.1,0.4c0.3,0,0.5,0,0.7,0c0.7-0.1,2.3-0.2,4-0.3
	c1.7-0.1,3.6-0.2,4.8-0.2c0.5,0,0.9,0,1.1,0c0.8,0.1,1.9,0.3,3,0.9c1.1,0.6,2,1.5,2.7,3.1c0,0,0,0,0,0.1c0,0,0,0.1,0.1,0.1
	c0,0.1,0.1,0.3,0.2,0.5c0.3,0.8,1.1,1.1,1.1,2.1c0,0.1,0,0.2,0,0.3c-0.2,0.8-0.7,0.1-1.2,0.2c-0.1,0-0.1,0-0.1,0c0,0.1,0,0.2,0,0.3
	c0,0.2,0,0.4,0,0.8c0,0.3,0.2,0.8,0.2,1c0,1.1-0.1,1.8-0.3,2.4c-0.1,0.3-0.2,0.6-0.2,0.9l-0.1,0.4c0,0.2-0.1,0.3-0.1,0.5
	c0,0,0,0.1,0,0.1c0.2,0.5,0.2,1,0.2,1.8c-0.1,1.3-0.2,2.3-0.5,3.1c0,0.4,0.1,0.8,0.1,1c0,0.1,0,0.1,0,0.2c0.1,0.2-0.4,0.1-0.3,0.3
	c0.1,0.2,0.1,0.3,0.1,0.5c0,0.1,0,0.1,0,0.1c0,0,0,0.1-0.1,0.1c0,0,0,0-0.1,0.1c0,0-0.1,0-0.1,0c0,0,0,0-0.1,0c0,0,0,0-0.1,0.1
	c0,0-0.1,0.1-0.1,0.1c0,0.1-0.1,0.1-0.1,0.2c-0.1,0.2-0.1,0.3-0.2,0.5c0,0.1-0.1,0.2-0.2,0.2c0,0-0.1,0.1-0.1,0.1c0.5,0,1,0,1.5,0
	l0.7-1.1h0.5c0.3-1,0.4-2,0.7-3.1l0.5-1.9l1.1-3.6l0.6,1.9l0.2,1.2c-0.4,2.8-0.3,3.3-1.3,4.6c-0.4,0.5-1.3,1-1.7,2l3.2,0
	c0.6-0.8,0.6-1.1,0.7-1.1l0.6,0h0c0.2-1,0.5-1.8,0.5-2.9l0.2-0.5l0.3,0.4c1.2-4.8-0.3-9.5,0.1-14.3C58.4,20.5,59,17.1,58.7,13.7z
	 M47.1,26.5c0-0.2,0.2-0.3,0.4-0.3c0.2,0,0.3,0.1,0.4,0.3c0.1,0.2,0,0.4-0.2,0.6c0,0-0.1-0.1-0.1-0.1C47.3,26.9,47.1,26.7,47.1,26.5
	z M43.5,10.8c0,0-0.1,0.1-0.1,0.1c-0.1,0-0.3,0-0.4,0C43.1,10.8,43.3,10.8,43.5,10.8z M57.4,25.7c-0.1,1-0.1,2.1-0.2,3.1
	c0,0.4,0,0.7,0,1.1c0,0,0,0,0,0l-0.2-0.2l-1-1.3c-0.1-0.5-0.1-1-0.2-1.5c0.1-1,0.2-2,0.3-3c0.2-1.3,0.4-2.6,0.6-3.9l0.3-1.4l0.5-2.6
	c0-0.2,0.1-0.4,0.1-0.6c0-0.1,0-0.1,0.1-0.2c0,0,0,0,0-0.1c0.2-1.2,0-2.3-0.7-3.2c-0.2-0.2-0.4-0.4-0.7-0.6c-0.7-0.5-0.6-1,0.2-0.4
	c0.2,0.1,0.3,0.3,0.5,0.4c0.4,0.4,0.7,0.8,0.8,1.4C59,16.3,57.4,22.3,57.4,25.7z"/>
<path class="st0" d="M253.9,11.3c-4.4,0-8,1.6-10.7,4.8c-2.6,3.1-3.9,6.8-3.9,11.3c0,4.5,1.3,8.2,3.9,11.2c2.7,3.2,6.3,4.8,10.7,4.8
	c4.4,0,8-1.6,10.7-4.7c2.5-3,3.8-6.8,3.8-11.3c0-4.6-1.3-8.3-3.8-11.3C262,12.9,258.4,11.3,253.9,11.3z M259.5,33.9
	c-1.3,2.1-3.2,3.2-5.6,3.2c-2.4,0-4.3-1.1-5.6-3.2c-1.1-1.8-1.7-4-1.7-6.6c0-2.7,0.6-4.8,1.7-6.6c1.3-2.1,3.2-3.1,5.7-3.1
	c2.4,0,4.3,1.1,5.6,3.2c1.1,1.8,1.7,4,1.7,6.5C261.2,30,260.6,32.2,259.5,33.9z"/>
<path class="st0" d="M198.1,11.6c-2.1,0-3.3,1.4-3.7,4.2l-13.6,15.6V16.1c0-3-1.2-4.5-3.5-4.5c-2.4,0-3.6,1.5-3.6,4.5v22.6
	c0,3,1.2,4.5,3.6,4.5c2,0,3.2-1.3,3.5-4L194.5,24v14.7c0,2.9,1.2,4.4,3.6,4.4c2.3,0,3.5-1.5,3.5-4.5V16.1
	C201.6,13.1,200.4,11.6,198.1,11.6z"/>
<path class="st0" d="M230.9,11.6c-2.3,0-3.5,1.5-3.5,4.6V24h-12.7v-7.8c0-3.1-1.2-4.6-3.5-4.6c-2.4,0-3.6,1.5-3.6,4.6v22.4
	c0,3.1,1.2,4.6,3.6,4.6c2.3,0,3.5-1.5,3.5-4.6v-9.2h12.7v9.2c0,3.1,1.2,4.6,3.5,4.6c2.4,0,3.6-1.5,3.6-4.6V16.2
	C234.5,13.1,233.3,11.6,230.9,11.6z"/>
<path class="st0" d="M158.9,25.8l8.8-8.2c1.1-1.1,1.7-2.1,1.7-3.2c0-0.8-0.3-1.6-0.9-2.2c-0.6-0.5-1.4-0.8-2.2-0.8
	c-1.1,0-2.3,0.6-3.4,1.7l-10.2,10.1v-7.1c0-3.1-1.2-4.6-3.6-4.6c-2.3,0-3.5,1.5-3.5,4.6v22.4c0,3.1,1.2,4.6,3.5,4.6
	c2.4,0,3.6-1.5,3.6-4.6v-9.9l11.2,12.6c1.2,1.3,2.4,1.9,3.7,1.9c0.8,0,1.6-0.2,2.3-0.7c0.6-0.5,1-1.2,1-2c0-1.4-0.4-2.6-1.4-3.5
	L158.9,25.8z"/>
<path class="st0" d="M103.5,5.2c-1-2.8-2.8-4.2-5.3-4.2c-2.4,0-4.3,1.5-5.4,4.6L80.7,38c-0.2,0.6-0.3,1.3-0.3,2c0,1,0.3,1.8,1,2.3
	c0.6,0.6,1.5,0.9,2.4,0.9c1.6,0,2.7-1,3.5-3L97.8,9.7c0.1-0.2,0.2-0.4,0.3-0.6l10.5,31c0.7,2.1,1.9,3.1,3.7,3.1c2,0,3.6-1.2,3.6-3.1
	c0-0.6-0.2-1.3-0.5-2.2L103.5,5.2z"/>
<path class="st0" d="M139.3,11.6c-1.5,0-2.6,0.9-3.2,2.7l-6.1,17.5l-6.3-17c-0.8-2.1-2-3.2-3.6-3.2c-1,0-1.8,0.3-2.4,1
	c-0.6,0.7-1,1.5-1,2.5c0,0.6,0.1,1.3,0.4,1.9l9.4,23.4l-4,9.6c-0.3,0.9-0.5,1.6-0.5,2.4c0,2.3,1.1,3.4,3.4,3.4c1.5,0,2.6-1,3.3-3
	l13.7-35.5c0.3-0.8,0.5-1.6,0.5-2.3C142.7,12.7,141.6,11.6,139.3,11.6z"/>
</svg>
