<svg version="1.1"
	 xmlns="http://www.w3.org/2000/svg" xmlns:xlink="http://www.w3.org/1999/xlink" xmlns:a="http://ns.adobe.com/AdobeSVGViewerExtensions/3.0/"
	 x="0px" y="0px" width="45px" height="44px" viewBox="0 0 45 44" style="enable-background:new 0 0 45 44;" xml:space="preserve">
	<path fill="#f4d03f" class="st0" d="M44.7,16.6c-0.1-0.3-0.3-0.5-0.6-0.5L29.5,14L23.1,0.9c-0.1-0.3-0.4-0.4-0.7-0.4c-0.3,0-0.6,0.2-0.7,0.4
		L15.2,14L0.7,16.1c-0.3,0-0.6,0.3-0.6,0.5c-0.1,0.3,0,0.6,0.2,0.8l10.5,10.2L8.2,42.1c-0.1,0.3,0.1,0.6,0.3,0.8
		C8.8,43,9.1,43,9.4,42.9l12.9-6.8l12.9,6.8c0.1,0.1,0.2,0.1,0.4,0.1c0.2,0,0.3-0.1,0.5-0.2c0.2-0.2,0.4-0.5,0.3-0.8L34,27.7
		l10.5-10.2C44.7,17.2,44.8,16.9,44.7,16.6z"/>
</svg>
