<!-- Generator: Adobe Illustrator 22.0.1, SVG Export Plug-In  -->
<svg version="1.1"
	 xmlns="http://www.w3.org/2000/svg" xmlns:xlink="http://www.w3.org/1999/xlink" xmlns:a="http://ns.adobe.com/AdobeSVGViewerExtensions/3.0/"
	 x="0px" y="0px" width="56px" height="72px" viewBox="0 0 56 72" style="enable-background:new 0 0 56 72;" xml:space="preserve">
<defs>
</defs>
<path fill="#6ab04c" d="M52,64v-8c0-8.4-4.3-15.7-10.7-20C47.7,31.7,52,24.4,52,16V8c2.2,0,4-1.8,4-4s-1.8-4-4-4H4C1.8,0,0,1.8,0,4s1.8,4,4,4v8
	c0,8.4,4.3,15.7,10.7,20C8.3,40.3,4,47.6,4,56v8c-2.2,0-4,1.8-4,4s1.8,4,4,4h48c2.2,0,4-1.8,4-4S54.2,64,52,64z M12,16V8h32v8
	c0,8.8-7.2,16-16,16S12,24.8,12,16z M12,64v-8c0-8.8,7.2-16,16-16s16,7.2,16,16v8H12z"/>
</svg>

